{
  "accessors": [
    {
      "bufferView": 2,
      "componentType": 5126,
      "count": 1064,
      "max": [
        2.5100045204162598,
        6.475048542022705,
        1.0387300252914429
      ],
      "min": [
        -2.4732251167297363,
        -8.25666332244873,
        -1.0
      ],
      "type": "VEC3"
    },
    {
      "bufferView": 2,
      "byteOffset": 12768,
      "componentType": 5126,
      "count": 1064,
      "max": [
        1.0,
        1.0,
        1.0
      ],
      "min": [
        -1.0,
        -1.0,
        -1.0
      ],
      "type": "VEC3"
    },
    {
      "bufferView": 1,
      "componentType": 5126,
      "count": 1064,
      "max": [
        0.9988364577293396,
        0.9988299608230591
      ],
      "min": [
        0.0042344373650848866,
        0.004259670153260231
      ],
      "type": "VEC2"
    },
    {
      "bufferView": 0,
      "componentType": 5125,
      "count": 2730,
      "type": "SCALAR"
    },
    {
      "bufferView": 2,
      "byteOffset": 25536,
      "componentType": 5126,
      "count": 656,
      "max": [
        5.576268196105957,
        9.428274154663086,
        48.56252670288086
      ],
      "min": [
        -27.310855865478516,
        -9.428274154663086,
        -1.0191413164138794
      ],
      "type": "VEC3"
    },
    {
      "bufferView": 2,
      "byteOffset": 33408,
      "componentType": 5126,
      "count": 656,
      "max": [
        1.0,
        1.0,
        1.0
      ],
      "min": [
        -1.0,
        -1.0,
        -1.0
      ],
      "type": "VEC3"
    },
    {
      "bufferView": 1,
      "byteOffset": 8512,
      "componentType": 5126,
      "count": 656,
      "max": [
        0.9999396204948425,
        0.9926506280899048
      ],
      "min": [
        0.00119353411719203,
        0.007213704753667116
      ],
      "type": "VEC2"
    },
    {
      "bufferView": 0,
      "byteOffset": 10920,
      "componentType": 5125,
      "count": 1236,
      "type": "SCALAR"
    },
    {
      "bufferView": 2,
      "byteOffset": 41280,
      "componentType": 5126,
      "count": 30560,
      "max": [
        0.46246129274368286,
        4.009666442871094,
        13.300067901611328
      ],
      "min": [
        -22.223556518554688,
        -4.020704746246338,
        -0.0739603042602539
      ],
      "type": "VEC3"
    },
    {
      "bufferView": 2,
      "byteOffset": 408000,
      "componentType": 5126,
      "count": 30560,
      "max": [
        1.0,
        1.0,
        1.0
      ],
      "min": [
        -1.0,
        -1.0,
        -1.0
      ],
      "type": "VEC3"
    },
    {
      "bufferView": 1,
      "byteOffset": 13760,
      "componentType": 5126,
      "count": 30560,
      "max": [
        0.9999743700027466,
        0.997512698173523
      ],
      "min": [
        0.0,
        0.0
      ],
      "type": "VEC2"
    },
    {
      "bufferView": 0,
      "byteOffset": 15864,
      "componentType": 5125,
      "count": 46368,
      "type": "SCALAR"
    }
  ],
  "asset": {
    "extras": {
      "author": "mertart3D (https://sketchfab.com/mertbbicak)",
      "license": "CC-BY-4.0 (http://creativecommons.org/licenses/by/4.0/)",
      "source": "https://sketchfab.com/3d-models/gas-station-dc5051e7dce243578344de3a07449a52",
      "title": "Gas Station"
    },
    "generator": "Sketchfab-12.68.0",
    "version": "2.0"
  },
  "bufferViews": [
    {
      "buffer": 0,
      "byteLength": 201336,
      "name": "floatBufferViews",
      "target": 34963
    },
    {
      "buffer": 0,
      "byteLength": 258240,
      "byteOffset": 201336,
      "byteStride": 8,
      "name": "floatBufferViews",
      "target": 34962
    },
    {
      "buffer": 0,
      "byteLength": 774720,
      "byteOffset": 459576,
      "byteStride": 12,
      "name": "floatBufferViews",
      "target": 34962
    }
  ],
  "buffers": [
    {
      "byteLength": 1234296,
      "uri": "scene.bin"
    }
  ],
  "images": [
    {
      "uri": "textures/gas.store.tex_baseColor.png"
    },
    {
      "uri": "textures/gas.station.tex_baseColor.png"
    },
    {
      "uri": "textures/gas.cube.tex_baseColor.png"
    }
  ],
  "materials": [
    {
      "doubleSided": true,
      "name": "gas.store.tex",
      "pbrMetallicRoughness": {
        "baseColorTexture": {
          "index": 0
        },
        "metallicFactor": 0.0,
        "roughnessFactor": 0.8211145618000169
      }
    },
    {
      "doubleSided": true,
      "name": "gas.station.tex",
      "pbrMetallicRoughness": {
        "baseColorTexture": {
          "index": 1
        },
        "metallicFactor": 0.0,
        "roughnessFactor": 0.8211145618000169
      }
    },
    {
      "doubleSided": true,
      "name": "gas.cube.tex",
      "pbrMetallicRoughness": {
        "baseColorTexture": {
          "index": 2
        },
        "metallicFactor": 0.0,
        "roughnessFactor": 0.8211145618000169
      }
    }
  ],
  "meshes": [
    {
      "name": "gas.store.baked.002_gas.store.tex_0",
      "primitives": [
        {
          "attributes": {
            "NORMAL": 1,
            "POSITION": 0,
            "TEXCOORD_0": 2
          },
          "indices": 3,
          "material": 0,
          "mode": 4
        }
      ]
    },
    {
      "name": "gas.station.baked.002_gas.station.tex_0",
      "primitives": [
        {
          "attributes": {
            "NORMAL": 5,
            "POSITION": 4,
            "TEXCOORD_0": 6
          },
          "indices": 7,
          "material": 1,
          "mode": 4
        }
      ]
    },
    {
      "name": "gas.station.cubes.002_gas.cube.tex_0",
      "primitives": [
        {
          "attributes": {
            "NORMAL": 9,
            "POSITION": 8,
            "TEXCOORD_0": 10
          },
          "indices": 11,
          "material": 2,
          "mode": 4
        }
      ]
    }
  ],
  "nodes": [
    {
      "children": [
        1
      ],
      "matrix": [
        1.0,
        0.0,
        0.0,
        0.0,
        0.0,
        2.220446049250313e-16,
        -1.0,
        0.0,
        0.0,
        1.0,
        2.220446049250313e-16,
        0.0,
        0.0,
        0.0,
        0.0,
        1.0
      ],
      "name": "Sketchfab_model"
    },
    {
      "children": [
        2
      ],
      "matrix": [
        1.0,
        0.0,
        0.0,
        0.0,
        0.0,
        0.0,
        1.0,
        0.0,
        0.0,
        -1.0,
        0.0,
        0.0,
        0.0,
        0.0,
        0.0,
        1.0
      ],
      "name": "gas-station.fbx"
    },
    {
      "children": [
        3,
        5,
        7
      ],
      "name": "RootNode"
    },
    {
      "children": [
        4
      ],
      "matrix": [
        292.5638732910156,
        0.0,
        0.0,
        0.0,
        -0.0,
        -4.7664705002077946e-05,
        -292.56387329101176,
        0.0,
        0.0,
        292.56387329101176,
        -4.7664705002077946e-05,
        0.0,
        -3342.3671875,
        292.7284851074219,
        5.145265095052309e-05,
        1.0
      ],
      "name": "gas.store.baked.002"
    },
    {
      "mesh": 0,
      "name": "gas.store.baked.002_gas.store.tex_0"
    },
    {
      "children": [
        6
      ],
      "matrix": [
        100.0,
        0.0,
        0.0,
        0.0,
        0.0,
        -1.3349254747319589e-05,
        -81.93714141845595,
        0.0,
        0.0,
        13.573330879211246,
        -2.21137628845125e-06,
        0.0,
        0.0,
        13.896968841552734,
        0.0,
        1.0
      ],
      "name": "gas.station.baked.002"
    },
    {
      "mesh": 1,
      "name": "gas.station.baked.002_gas.station.tex_0"
    },
    {
      "children": [
        8
      ],
      "matrix": [
        100.0,
        0.0,
        0.0,
        0.0,
        0.0,
        -1.3349254747319589e-05,
        -81.93714141845595,
        0.0,
        0.0,
        13.573330879211246,
        -2.21137628845125e-06,
        0.0,
        0.0,
        13.896968841552734,
        0.0,
        1.0
      ],
      "name": "gas.station.cubes.002"
    },
    {
      "mesh": 2,
      "name": "gas.station.cubes.002_gas.cube.tex_0"
    }
  ],
  "samplers": [
    {
      "magFilter": 9729,
      "minFilter": 9987,
      "wrapS": 10497,
      "wrapT": 10497
    }
  ],
  "scene": 0,
  "scenes": [
    {
      "name": "Sketchfab_Scene",
      "nodes": [
        0
      ]
    }
  ],
  "textures": [
    {
      "sampler": 0,
      "source": 0
    },
    {
      "sampler": 0,
      "source": 1
    },
    {
      "sampler": 0,
      "source": 2
    }
  ]
}
