{
  "accessors": [
    {
      "bufferView": 1,
      "componentType": 5126,
      "count": 3000,
      "max": [
        1.0608762502670288,
        1.0608758926391602,
        0.0
      ],
      "min": [
        -1.0608758926391602,
        -1.0608760118484497,
        -0.12015828490257263
      ],
      "type": "VEC3"
    },
    {
      "bufferView": 1,
      "byteOffset": 36000,
      "componentType": 5126,
      "count": 3000,
      "max": [
        0.9981655478477478,
        0.998165488243103,
        -0.059635646641254425
      ],
      "min": [
        -0.998165488243103,
        -0.9981656074523926,
        -1.0
      ],
      "type": "VEC3"
    },
    {
      "bufferView": 0,
      "componentType": 5125,
      "count": 5400,
      "type": "SCALAR"
    },
    {
      "bufferView": 1,
      "byteOffset": 72000,
      "componentType": 5126,
      "count": 3440,
      "max": [
        0.6374251842498779,
        0.637424647808075,
        1.0
      ],
      "min": [
        -0.6374240517616272,
        -0.6374240517616272,
        0.7705131769180298
      ],
      "type": "VEC3"
    },
    {
      "bufferView": 1,
      "byteOffset": 113280,
      "componentType": 5126,
      "count": 3440,
      "max": [
        0.6127305030822754,
        0.6127296686172485,
        0.999506413936615
      ],
      "min": [
        -0.6127299070358276,
        -0.6127297878265381,
        0.7899248003959656
      ],
      "type": "VEC3"
    },
    {
      "bufferView": 0,
      "byteOffset": 21600,
      "componentType": 5125,
      "count": 5040,
      "type": "SCALAR"
    },
    {
      "bufferView": 1,
      "byteOffset": 154560,
      "componentType": 5126,
      "count": 2130,
      "max": [
        0.5944786667823792,
        0.5944779515266418,
        1.0
      ],
      "min": [
        -0.003706604242324829,
        -0.003707319498062134,
        0.6925976276397705
      ],
      "type": "VEC3"
    },
    {
      "bufferView": 1,
      "byteOffset": 180120,
      "componentType": 5126,
      "count": 2130,
      "max": [
        0.9994633793830872,
        0.9994634389877319,
        0.9995068311691284
      ],
      "min": [
        -0.9979178309440613,
        -0.9979177117347717,
        -0.9995067715644836
      ],
      "type": "VEC3"
    },
    {
      "bufferView": 0,
      "byteOffset": 41760,
      "componentType": 5125,
      "count": 3120,
      "type": "SCALAR"
    },
    {
      "bufferView": 1,
      "byteOffset": 205680,
      "componentType": 5126,
      "count": 2130,
      "max": [
        0.5944786667823792,
        0.5944779515266418,
        1.0
      ],
      "min": [
        -0.003706604242324829,
        -0.003707319498062134,
        0.6925976276397705
      ],
      "type": "VEC3"
    },
    {
      "bufferView": 1,
      "byteOffset": 231240,
      "componentType": 5126,
      "count": 2130,
      "max": [
        0.9994633793830872,
        0.9994634389877319,
        0.9995068311691284
      ],
      "min": [
        -0.9979178309440613,
        -0.9979177117347717,
        -0.9995067715644836
      ],
      "type": "VEC3"
    },
    {
      "bufferView": 0,
      "byteOffset": 54240,
      "componentType": 5125,
      "count": 3120,
      "type": "SCALAR"
    },
    {
      "bufferView": 1,
      "byteOffset": 256800,
      "componentType": 5126,
      "count": 2130,
      "max": [
        0.5944786667823792,
        0.5944779515266418,
        1.0
      ],
      "min": [
        -0.003706604242324829,
        -0.003707319498062134,
        0.6925976276397705
      ],
      "type": "VEC3"
    },
    {
      "bufferView": 1,
      "byteOffset": 282360,
      "componentType": 5126,
      "count": 2130,
      "max": [
        0.9994633793830872,
        0.9994634389877319,
        0.9995068311691284
      ],
      "min": [
        -0.9979178309440613,
        -0.9979177117347717,
        -0.9995067715644836
      ],
      "type": "VEC3"
    },
    {
      "bufferView": 0,
      "byteOffset": 66720,
      "componentType": 5125,
      "count": 3120,
      "type": "SCALAR"
    },
    {
      "bufferView": 1,
      "byteOffset": 307920,
      "componentType": 5126,
      "count": 2130,
      "max": [
        0.5944786667823792,
        0.5944779515266418,
        1.0
      ],
      "min": [
        -0.003706604242324829,
        -0.003707319498062134,
        0.6925976276397705
      ],
      "type": "VEC3"
    },
    {
      "bufferView": 1,
      "byteOffset": 333480,
      "componentType": 5126,
      "count": 2130,
      "max": [
        0.9994633793830872,
        0.9994634389877319,
        0.9995068311691284
      ],
      "min": [
        -0.9979178309440613,
        -0.9979177117347717,
        -0.9995067715644836
      ],
      "type": "VEC3"
    },
    {
      "bufferView": 0,
      "byteOffset": 79200,
      "componentType": 5125,
      "count": 3120,
      "type": "SCALAR"
    },
    {
      "bufferView": 1,
      "byteOffset": 359040,
      "componentType": 5126,
      "count": 1600,
      "max": [
        1.0000017881393433,
        1.0000009536743164,
        0.7705131769180298
      ],
      "min": [
        -1.0,
        -1.0000007152557373,
        -4.0133926404450904e-07
      ],
      "type": "VEC3"
    },
    {
      "bufferView": 1,
      "byteOffset": 378240,
      "componentType": 5126,
      "count": 1600,
      "max": [
        1.0,
        1.0,
        0.9181958436965942
      ],
      "min": [
        -1.0,
        -1.0,
        0.0
      ],
      "type": "VEC3"
    },
    {
      "bufferView": 0,
      "byteOffset": 91680,
      "componentType": 5125,
      "count": 9000,
      "type": "SCALAR"
    },
    {
      "bufferView": 1,
      "byteOffset": 397440,
      "componentType": 5126,
      "count": 93,
      "max": [
        0.3683730959892273,
        0.5386508703231812,
        0.0
      ],
      "min": [
        -0.36852890253067017,
        -0.03543710708618164,
        -0.04066580906510353
      ],
      "type": "VEC3"
    },
    {
      "bufferView": 1,
      "byteOffset": 398556,
      "componentType": 5126,
      "count": 93,
      "max": [
        0.8867289423942566,
        0.9221267700195313,
        1.0
      ],
      "min": [
        -0.9046891927719116,
        -0.8519033193588257,
        -1.0
      ],
      "type": "VEC3"
    },
    {
      "bufferView": 0,
      "byteOffset": 127680,
      "componentType": 5125,
      "count": 144,
      "type": "SCALAR"
    },
    {
      "bufferView": 1,
      "byteOffset": 399672,
      "componentType": 5126,
      "count": 2753,
      "max": [
        0.29736489057540894,
        0.5540449619293213,
        0.0
      ],
      "min": [
        -0.26541441679000854,
        -0.03396860137581825,
        -0.03855137526988983
      ],
      "type": "VEC3"
    },
    {
      "bufferView": 1,
      "byteOffset": 432708,
      "componentType": 5126,
      "count": 2753,
      "max": [
        0.9979110956192017,
        0.9760536551475525,
        1.0
      ],
      "min": [
        -0.9362274408340454,
        -0.9474300146102905,
        -1.0
      ],
      "type": "VEC3"
    },
    {
      "bufferView": 0,
      "byteOffset": 128256,
      "componentType": 5125,
      "count": 4164,
      "type": "SCALAR"
    },
    {
      "bufferView": 1,
      "byteOffset": 465744,
      "componentType": 5126,
      "count": 91,
      "max": [
        0.34930118918418884,
        0.5649327039718628,
        0.0
      ],
      "min": [
        -0.343325674533844,
        -0.013226225972175598,
        -0.043111853301525116
      ],
      "type": "VEC3"
    },
    {
      "bufferView": 1,
      "byteOffset": 466836,
      "componentType": 5126,
      "count": 91,
      "max": [
        0.9557415843009949,
        0.9141581654548645,
        1.0
      ],
      "min": [
        -0.9532230496406555,
        -0.9589046239852905,
        -1.0
      ],
      "type": "VEC3"
    },
    {
      "bufferView": 0,
      "byteOffset": 144912,
      "componentType": 5125,
      "count": 144,
      "type": "SCALAR"
    }
  ],
  "asset": {
    "extras": {
      "author": "Jupiter (https://sketchfab.com/jupiterus)",
      "license": "CC-BY-4.0 (http://creativecommons.org/licenses/by/4.0/)",
      "source": "https://sketchfab.com/3d-models/bmw-emblem-3600527a617e49ef9832934dfde9fe59",
      "title": "BMW Emblem"
    },
    "generator": "Sketchfab-12.68.0",
    "version": "2.0"
  },
  "bufferViews": [
    {
      "buffer": 0,
      "byteLength": 145488,
      "name": "floatBufferViews",
      "target": 34963
    },
    {
      "buffer": 0,
      "byteLength": 467928,
      "byteOffset": 145488,
      "byteStride": 12,
      "name": "floatBufferViews",
      "target": 34962
    }
  ],
  "buffers": [
    {
      "byteLength": 613416,
      "uri": "scene.bin"
    }
  ],
  "materials": [
    {
      "doubleSided": true,
      "name": "Material.029",
      "pbrMetallicRoughness": {
        "baseColorFactor": [
          0.8,
          0.8,
          0.8,
          1.0
        ],
        "metallicFactor": 0.3421997458487618,
        "roughnessFactor": 0.1050729924788258
      }
    },
    {
      "doubleSided": true,
      "name": "Material.025",
      "pbrMetallicRoughness": {
        "baseColorFactor": [
          0.8,
          0.8,
          0.8,
          1.0
        ],
        "roughnessFactor": 0.0
      }
    },
    {
      "doubleSided": true,
      "name": "Material.026",
      "pbrMetallicRoughness": {
        "baseColorFactor": [
          0.012983000000000007,
          0.3139890000000001,
          0.6795429999999998,
          1.0
        ],
        "metallicFactor": 0.0,
        "roughnessFactor": 0.9381977368351213
      }
    },
    {
      "doubleSided": true,
      "name": "Material.027",
      "pbrMetallicRoughness": {
        "baseColorFactor": [
          0.8,
          0.8,
          0.8,
          1.0
        ],
        "metallicFactor": 0.0,
        "roughnessFactor": 0.8211145618000169
      }
    },
    {
      "doubleSided": true,
      "name": "Material.028",
      "pbrMetallicRoughness": {
        "baseColorFactor": [
          0.023651,
          0.023651,
          0.023651,
          1.0
        ],
        "roughnessFactor": 0.0
      }
    },
    {
      "doubleSided": true,
      "name": "White.004",
      "pbrMetallicRoughness": {
        "baseColorFactor": [
          0.8,
          0.8,
          0.8,
          1.0
        ],
        "metallicFactor": 0.0,
        "roughnessFactor": 0.06859195349883565
      }
    }
  ],
  "meshes": [
    {
      "name": "Circle.004_Material.029_0",
      "primitives": [
        {
          "attributes": {
            "NORMAL": 1,
            "POSITION": 0
          },
          "indices": 2,
          "material": 0,
          "mode": 4
        }
      ]
    },
    {
      "name": "Sphere.024_Material.025_0",
      "primitives": [
        {
          "attributes": {
            "NORMAL": 4,
            "POSITION": 3
          },
          "indices": 5,
          "material": 1,
          "mode": 4
        }
      ]
    },
    {
      "name": "Sphere.025_Material.026_0",
      "primitives": [
        {
          "attributes": {
            "NORMAL": 7,
            "POSITION": 6
          },
          "indices": 8,
          "material": 2,
          "mode": 4
        }
      ]
    },
    {
      "name": "Sphere.026_Material.026_0",
      "primitives": [
        {
          "attributes": {
            "NORMAL": 10,
            "POSITION": 9
          },
          "indices": 11,
          "material": 2,
          "mode": 4
        }
      ]
    },
    {
      "name": "Sphere.027_Material.027_0",
      "primitives": [
        {
          "attributes": {
            "NORMAL": 13,
            "POSITION": 12
          },
          "indices": 14,
          "material": 3,
          "mode": 4
        }
      ]
    },
    {
      "name": "Sphere.028_Material.027_0",
      "primitives": [
        {
          "attributes": {
            "NORMAL": 16,
            "POSITION": 15
          },
          "indices": 17,
          "material": 3,
          "mode": 4
        }
      ]
    },
    {
      "name": "Sphere.029_Material.028_0",
      "primitives": [
        {
          "attributes": {
            "NORMAL": 19,
            "POSITION": 18
          },
          "indices": 20,
          "material": 4,
          "mode": 4
        }
      ]
    },
    {
      "name": "Text.012_White.004_0",
      "primitives": [
        {
          "attributes": {
            "NORMAL": 22,
            "POSITION": 21
          },
          "indices": 23,
          "material": 5,
          "mode": 4
        }
      ]
    },
    {
      "name": "Text.013_White.004_0",
      "primitives": [
        {
          "attributes": {
            "NORMAL": 25,
            "POSITION": 24
          },
          "indices": 26,
          "material": 5,
          "mode": 4
        }
      ]
    },
    {
      "name": "Text.014_White.004_0",
      "primitives": [
        {
          "attributes": {
            "NORMAL": 28,
            "POSITION": 27
          },
          "indices": 29,
          "material": 5,
          "mode": 4
        }
      ]
    }
  ],
  "nodes": [
    {
      "children": [
        1
      ],
      "matrix": [
        1.0,
        0.0,
        0.0,
        0.0,
        0.0,
        2.220446049250313e-16,
        -1.0,
        0.0,
        0.0,
        1.0,
        2.220446049250313e-16,
        0.0,
        0.0,
        0.0,
        0.0,
        1.0
      ],
      "name": "Sketchfab_model"
    },
    {
      "children": [
        2
      ],
      "matrix": [
        0.009999999776482582,
        0.0,
        0.0,
        0.0,
        0.0,
        0.0,
        0.009999999776482582,
        0.0,
        0.0,
        -0.009999999776482582,
        0.0,
        0.0,
        0.0,
        0.0,
        0.0,
        1.0
      ],
      "name": "BMW Emblem.fbx"
    },
    {
      "children": [
        3,
        5,
        7,
        9,
        11,
        13,
        15,
        17,
        19,
        21
      ],
      "name": "RootNode"
    },
    {
      "children": [
        4
      ],
      "matrix": [
        58.13672657490364,
        -1.1574270683764827,
        -1.1718276956523632,
        0.0,
        -0.47074981269503013,
        27.976207554087683,
        -50.98725116425548,
        0.0,
        1.578357695768682,
        50.976312902911815,
        27.955633339253062,
        0.0,
        -2.4750678539276123,
        0.18405579030513763,
        -0.653386116027832,
        1.0
      ],
      "name": "Circle.004"
    },
    {
      "mesh": 0,
      "name": "Circle.004_Material.029_0"
    },
    {
      "children": [
        6
      ],
      "matrix": [
        58.735508232422,
        -1.1693480370874776,
        -1.1838969842289158,
        0.0,
        -0.4755986922716969,
        28.26437179289002,
        -51.5124368025149,
        0.0,
        0.13978954007365038,
        4.514791136668227,
        2.475931240072035,
        0.0,
        -2.487049102783203,
        -0.18695928156375885,
        -0.8559226989746094,
        1.0
      ],
      "name": "Sphere.024"
    },
    {
      "mesh": 1,
      "name": "Sphere.024_Material.025_0"
    },
    {
      "children": [
        8
      ],
      "matrix": [
        -0.5414318497461208,
        28.879598975787218,
        -52.63057220522765,
        0.0,
        -60.01126105994461,
        1.168083088705406,
        1.258313874970876,
        0.0,
        0.13948764923450238,
        4.504931928746618,
        2.4705242411665282,
        0.0,
        -3.0055689811706543,
        0.44682884216308594,
        -1.1031627655029297,
        1.0
      ],
      "name": "Sphere.025"
    },
    {
      "mesh": 2,
      "name": "Sphere.025_Material.026_0"
    },
    {
      "children": [
        10
      ],
      "matrix": [
        0.5415497168526751,
        -28.879591258792022,
        52.630562172734614,
        0.0,
        60.01126784927744,
        -1.1680192251938482,
        -1.258413366370368,
        0.0,
        0.1394869317848819,
        4.5049321543248375,
        2.470523870338549,
        0.0,
        -1.9445229768753052,
        -0.07871128618717194,
        -0.20287036895751953,
        1.0
      ],
      "name": "Sphere.026"
    },
    {
      "mesh": 3,
      "name": "Sphere.026_Material.026_0"
    },
    {
      "children": [
        12
      ],
      "matrix": [
        -60.01173864224566,
        1.1947631869320128,
        1.2097313808371115,
        0.0,
        0.4860256250330823,
        -28.87850038745592,
        52.63169406715319,
        0.0,
        0.13948929612011868,
        4.504930578642053,
        2.470523633963611,
        0.0,
        -2.995579242706299,
        -0.05561448633670807,
        -0.18129348754882813,
        1.0
      ],
      "name": "Sphere.027"
    },
    {
      "mesh": 4,
      "name": "Sphere.027_Material.027_0"
    },
    {
      "children": [
        14
      ],
      "matrix": [
        60.01172574888286,
        -1.1947558779776053,
        -1.209620947712458,
        0.0,
        -0.48593259631568386,
        28.878505748086962,
        -52.631709390180156,
        0.0,
        0.1394842480892792,
        4.504931103189266,
        2.4705239545122577,
        0.0,
        -1.9546806812286377,
        0.4263784885406494,
        -1.124739646911621,
        1.0
      ],
      "name": "Sphere.028"
    },
    {
      "mesh": 5,
      "name": "Sphere.028_Material.027_0"
    },
    {
      "children": [
        16
      ],
      "matrix": [
        58.42033851527739,
        -1.1630734154627858,
        -1.1775444030794626,
        0.0,
        -0.4730467978071033,
        28.112709496388607,
        -51.23602893916978,
        0.0,
        0.13907780490042806,
        4.491804034958709,
        2.463325012738415,
        0.0,
        -2.4750678539276123,
        0.18405579030513763,
        -0.653386116027832,
        1.0
      ],
      "name": "Sphere.029"
    },
    {
      "mesh": 6,
      "name": "Sphere.029_Material.028_0"
    },
    {
      "children": [
        18
      ],
      "matrix": [
        20.64027246903225,
        -12.545637882672073,
        21.711279084540102,
        0.0,
        24.765639183451782,
        5.793199053131711,
        -20.19642239436697,
        0.0,
        3.9288388013282995,
        29.391133408449896,
        13.248331074248565,
        0.0,
        28.013442993164063,
        14.976588249206543,
        -20.3824520111084,
        1.0
      ],
      "name": "Text.012"
    },
    {
      "mesh": 7,
      "name": "Text.012_White.004_0"
    },
    {
      "children": [
        20
      ],
      "matrix": [
        21.575895829815913,
        12.753238876613148,
        -24.473303387750487,
        0.0,
        -24.23737119139694,
        6.357560165167826,
        -18.054919091000198,
        0.0,
        -2.4176634340411014,
        31.81923909032094,
        14.449831188849943,
        0.0,
        -32.28563690185547,
        16.568140029907227,
        -19.877910614013672,
        1.0
      ],
      "name": "Text.013"
    },
    {
      "mesh": 8,
      "name": "Text.013_White.004_0"
    },
    {
      "children": [
        22
      ],
      "matrix": [
        31.158703455899435,
        -0.6203295046016901,
        -0.6280476593286455,
        0.0,
        -0.3535133270867137,
        11.552653569385502,
        -28.94918645405082,
        0.0,
        0.8088763685531368,
        28.944698293166848,
        11.540984891074233,
        0.0,
        -2.668628454208374,
        22.366329193115234,
        -32.12406539916992,
        1.0
      ],
      "name": "Text.014"
    },
    {
      "mesh": 9,
      "name": "Text.014_White.004_0"
    }
  ],
  "scene": 0,
  "scenes": [
    {
      "name": "Sketchfab_Scene",
      "nodes": [
        0
      ]
    }
  ]
}
